# xmcd CD database file
#
# Track frame offsets:
#	151
#	12762
#	26756
#	42015
#	54068
#	68165
#	81023
#	93583
#	106414
#	117404
#	132064
#	145338
#	159296
#	171675
#	182907
#	195834
#	208845
#	220650
#	234802
#	248591
#
# Disc length: 3488 seconds
#
# Revision: 0
# Processed by: cddbd v1.5.2PL0 Copyright (c) Steve Scherf et al.
# Submitted via: CDex 1.70beta2
#
DISCID=060d9e14
DTITLE=Django Reinhardt Rhythm and Swing(Disc3 1935-1937) - Django Reinhardt
DYEAR=1935
DGENRE=Jazz
TTITLE0=The Object of My Affection
TTITLE1=I'se A-Muggin'
TTITLE2=I Can't Give You Anything But Love
TTITLE3=Oriental Shuffle
TTITLE4=After You've Gone
TTITLE5=Are You In The Mood
TTITLE6=Limehouse Blues
TTITLE7=Nagasaki
TTITLE8=Swing Guitars
TTITLE9=Georgia on My Mind
TTITLE10=Shine
TTITLE11=In The Still of The Night
TTITLE12=Sweet Chorus
TTITLE13=Exactly Like You
TTITLE14=Charleston
TTITLE15=You're Driving Me Crazy
TTITLE16=Tears
TTITLE17=Solitude
TTITLE18=Hot Lips
TTITLE19=Ain't Misbehavin'
EXTD=YEAR: 1935
EXTT0=
EXTT1=
EXTT2=
EXTT3=
EXTT4=
EXTT5=
EXTT6=
EXTT7=
EXTT8=
EXTT9=
EXTT10=
EXTT11=
EXTT12=
EXTT13=
EXTT14=
EXTT15=
EXTT16=
EXTT17=
EXTT18=
EXTT19=
PLAYORDER=
